name Walk3.mot
datacolumns 19
datarows 30
range 3.69100000 3.72000000
endheader

                time	   L_ground_force_vx	   L_ground_force_vy	   L_ground_force_vz	   L_ground_force_px	   L_ground_force_py	   L_ground_force_pz	   R_ground_force_vx	   R_ground_force_vy	   R_ground_force_vz	   R_ground_force_px	   R_ground_force_py	   R_ground_force_pz	   L_ground_torque_x	   L_ground_torque_y	   L_ground_torque_z	   R_ground_torque_x	   R_ground_torque_y	   R_ground_torque_z	
          3.69100000	          0.00000000	          0.00000000	         -0.00000000	         -0.00000000	          0.00000000	         -0.00000000	         24.59292769	         92.70969283	          1.39239193	          0.15769669	          0.00000000	          0.06817061	          0.00000000	          0.00000000	          0.00000000	          0.00000000	         -5.84884725	          0.00000000	
          3.69200000	          0.00000000	          0.00000000	         -0.00000000	         -0.00000000	          0.00000000	         -0.00000000	         23.24231994	         86.64173921	          1.42275254	          0.15316435	          0.00000000	          0.06617887	          0.00000000	          0.00000000	          0.00000000	          0.00000000	         -5.57232499	          0.00000000	
          3.69300000	          0.00000000	          0.00000000	         -0.00000000	         -0.00000000	          0.00000000	         -0.00000000	         21.92102179	         80.77096416	          1.44528440	          0.14852028	          0.00000000	          0.06414192	          0.00000000	          0.00000000	          0.00000000	          0.00000000	         -5.29912227	          0.00000000	
          3.69400000	          0.00000000	          0.00000000	         -0.00000000	         -0.00000000	          0.00000000	         -0.00000000	         20.63083430	         75.10020996	          1.46052755	          0.14377355	          0.00000000	          0.06206359	          0.00000000	          0.00000000	          0.00000000	          0.00000000	         -5.02974472	          0.00000000	
          3.69500000	          0.00000000	          0.00000000	         -0.00000000	         -0.00000000	          0.00000000	         -0.00000000	         19.37343951	         69.63185773	          1.46901270	          0.13893457	          0.00000000	          0.05994829	          0.00000000	          0.00000000	          0.00000000	          0.00000000	         -4.76468535	          0.00000000	
          3.69600000	          0.00000000	          0.00000000	         -0.00000000	         -0.00000000	          0.00000000	         -0.00000000	         18.15039016	         64.36781517	          1.47125928	          0.13401521	          0.00000000	          0.05780097	          0.00000000	          0.00000000	          0.00000000	          0.00000000	         -4.50442261	          0.00000000	
          3.69700000	          0.00000000	          0.00000000	         -0.00000000	         -0.00000000	          0.00000000	         -0.00000000	         16.96309874	         59.30949952	          1.46777345	          0.12902886	          0.00000000	          0.05562724	          0.00000000	          0.00000000	          0.00000000	          0.00000000	         -4.24941766	          0.00000000	
          3.69800000	          0.00000000	          0.00000000	         -0.00000000	         -0.00000000	          0.00000000	         -0.00000000	         15.81282519	         54.45781252	          1.45904599	          0.12399061	          0.00000000	          0.05343340	          0.00000000	          0.00000000	          0.00000000	          0.00000000	         -4.00011020	          0.00000000	
          3.69900000	          0.00000000	          0.00000000	         -0.00000000	         -0.00000000	          0.00000000	         -0.00000000	         14.70066376	         49.81310768	          1.44555026	          0.11891735	          0.00000000	          0.05122649	          0.00000000	          0.00000000	          0.00000000	          0.00000000	         -3.75691295	          0.00000000	
          3.70000000	          0.00000000	          0.00000000	         -0.00000000	         -0.00000000	          0.00000000	         -0.00000000	         13.62752927	         45.37514997	          1.42774037	          0.11382760	          0.00000000	          0.04901436	          0.00000000	          0.00000000	          0.00000000	          0.00000000	         -3.52020444	          0.00000000	
          3.70100000	          0.00000000	          0.00000000	         -0.00000000	         -0.00000000	          0.00000000	         -0.00000000	         12.59414407	         41.14307258	          1.40604975	          0.10874069	          0.00000000	          0.04680519	          0.00000000	          0.00000000	          0.00000000	          0.00000000	         -3.29032085	          0.00000000	
          3.70200000	          0.00000000	          0.00000000	         -0.00000000	         -0.00000000	          0.00000000	         -0.00000000	         11.60103124	         37.11535394	          1.38089022	          0.10367539	          0.00000000	          0.04460699	          0.00000000	          0.00000000	          0.00000000	          0.00000000	         -3.06754956	          0.00000000	
          3.70300000	          0.00000000	          0.00000000	         -0.00000000	         -0.00000000	          0.00000000	         -0.00000000	         10.64851941	         33.28983843	          1.35265180	          0.09864900	          0.00000000	          0.04242713	          0.00000000	          0.00000000	          0.00000000	          0.00000000	         -2.85212766	          0.00000000	
          3.70400000	          0.00000000	          0.00000000	         -0.00000000	         -0.00000000	          0.00000000	         -0.00000000	          9.73675581	         29.66378962	          1.32170297	          0.09367720	          0.00000000	          0.04027229	          0.00000000	          0.00000000	          0.00000000	          0.00000000	         -2.64424430	          0.00000000	
          3.70500000	          0.00000000	          0.00000000	         -0.00000000	         -0.00000000	          0.00000000	         -0.00000000	          8.86572123	         26.23395003	          1.28839114	          0.08877414	          0.00000000	          0.03814849	          0.00000000	          0.00000000	          0.00000000	          0.00000000	         -2.44404406	          0.00000000	
          3.70600000	          0.00000000	          0.00000000	         -0.00000000	         -0.00000000	          0.00000000	         -0.00000000	          8.03524413	         22.99659769	          1.25304308	          0.08395250	          0.00000000	          0.03606110	          0.00000000	          0.00000000	          0.00000000	          0.00000000	         -2.25163021	          0.00000000	
          3.70700000	          0.00000000	          0.00000000	         -0.00000000	         -0.00000000	          0.00000000	         -0.00000000	          7.24501434	         19.94759974	          1.21596550	          0.07922358	          0.00000000	          0.03401493	          0.00000000	          0.00000000	          0.00000000	          0.00000000	         -2.06706780	          0.00000000	
          3.70800000	          0.00000000	          0.00000000	         -0.00000000	         -0.00000000	          0.00000000	         -0.00000000	          6.49459595	         17.08246295	          1.17744556	          0.07459737	          0.00000000	          0.03201419	          0.00000000	          0.00000000	          0.00000000	          0.00000000	         -1.89038668	          0.00000000	
          3.70900000	          0.00000000	          0.00000000	         -0.00000000	         -0.00000000	          0.00000000	         -0.00000000	          5.78343969	         14.39638137	          1.13775146	          0.07008260	          0.00000000	          0.03006260	          0.00000000	          0.00000000	          0.00000000	          0.00000000	         -1.72158440	          0.00000000	
          3.71000000	          0.00000000	          0.00000000	         -0.00000000	         -0.00000000	          0.00000000	         -0.00000000	          5.11089462	         11.88428107	          1.09713301	          0.06568688	          0.00000000	          0.02816333	          0.00000000	          0.00000000	          0.00000000	          0.00000000	         -1.56062892	          0.00000000	
          3.71100000	          0.00000000	          0.00000000	         -0.00000000	         -0.00000000	          0.00000000	         -0.00000000	          4.47621926	          9.54086205	          1.05582231	          0.06141669	          0.00000000	          0.02631913	          0.00000000	          0.00000000	          0.00000000	          0.00000000	         -1.40746130	          0.00000000	
          3.71200000	          0.00000000	          0.00000000	         -0.00000000	         -0.00000000	          0.00000000	         -0.00000000	          3.87859204	          7.36063759	          1.01403430	          0.05727748	          0.00000000	          0.02453227	          0.00000000	          0.00000000	          0.00000000	          0.00000000	         -1.26199816	          0.00000000	
          3.71300000	          0.00000000	          0.00000000	         -0.00000000	         -0.00000000	          0.00000000	         -0.00000000	          3.31712129	          5.33797075	          0.97196749	          0.05327377	          0.00000000	          0.02280464	          0.00000000	          0.00000000	          0.00000000	          0.00000000	         -1.12413410	          0.00000000	
          3.71400000	          0.00000000	          0.00000000	         -0.00000000	         -0.00000000	          0.00000000	         -0.00000000	          2.79085449	          3.46710853	          0.92980453	          0.04940916	          0.00000000	          0.02113773	          0.00000000	          0.00000000	          0.00000000	          0.00000000	         -0.99374397	          0.00000000	
          3.71500000	          0.00000000	          0.00000000	         -0.00000000	         -0.00000000	          0.00000000	         -0.00000000	          2.29878709	          1.74221340	          0.88771293	          0.04568643	          0.00000000	          0.01953267	          0.00000000	          0.00000000	          0.00000000	          0.00000000	         -0.87068503	          0.00000000	
          3.71600000	          0.00000000	          0.00000000	         -0.00000000	         -0.00000000	          0.00000000	         -0.00000000	          1.83987073	          0.15739263	          0.84584567	          0.04210759	          0.00000000	          0.01799027	          0.00000000	          0.00000000	          0.00000000	          0.00000000	         -0.75479896	          0.00000000	
          3.71700000	          0.00000000	          0.00000000	         -0.00000000	         -0.00000000	          0.00000000	         -0.00000000	          1.41302091	         -1.29327484	          0.80434188	          0.03867391	          0.00000000	          0.01651102	          0.00000000	          0.00000000	          0.00000000	          0.00000000	         -0.64591380	          0.00000000	
          3.71800000	          0.00000000	          0.00000000	         -0.00000000	         -0.00000000	          0.00000000	         -0.00000000	          1.01712416	         -2.61571352	          0.76332750	          0.03538605	          0.00000000	          0.01509516	          0.00000000	          0.00000000	          0.00000000	          0.00000000	         -0.54384574	          0.00000000	
          3.71900000	          0.00000000	          0.00000000	         -0.00000000	         -0.00000000	          0.00000000	         -0.00000000	          0.65104472	         -3.81582879	          0.72291590	          0.03224401	          0.00000000	          0.01374264	          0.00000000	          0.00000000	          0.00000000	          0.00000000	         -0.44840087	          0.00000000	
          3.72000000	          0.00000000	          0.00000000	         -0.00000000	         -0.00000000	          0.00000000	         -0.00000000	          0.31363074	         -4.89948613	          0.68320852	          0.02924729	          0.00000000	          0.01245319	          0.00000000	          0.00000000	          0.00000000	          0.00000000	         -0.35937672	          0.00000000	
